<svg xmlns="http://www.w3.org/2000/svg" xmlns:xlink="http://www.w3.org/1999/xlink" width="1920" height="1920" viewBox="0 0 1920 1920"><defs><linearGradient id="a" x1="80" y1="1360" x2="1840" y2="1360" gradientUnits="userSpaceOnUse"><stop offset="0.01" stop-color="#ff5c35"/><stop offset="0.64" stop-color="#ffa766"/></linearGradient><linearGradient id="b" x1="80" y1="560" x2="1840" y2="560" gradientUnits="userSpaceOnUse"><stop offset="0" stop-color="#ff5c35"/><stop offset="1" stop-color="#ffa766"/></linearGradient></defs><rect width="1920" height="1920" fill="none"/><path d="M1520,1680H400a320,320,0,0,1,0-640H1520a320,320,0,0,1,0,640Z" fill="url(#a)"/><circle cx="1520" cy="1360" r="320" fill="#ff5c35"/><path d="M1520,880H1200a320,320,0,0,1,0-640h320a320,320,0,0,1,0,640ZM400,240C223.27,240,80,383.27,80,560S223.27,880,400,880,720,736.73,720,560,576.73,240,400,240Z" fill="url(#b)"/></svg>