<svg xmlns="http://www.w3.org/2000/svg" xmlns:xlink="http://www.w3.org/1999/xlink" width="1920" height="1920" viewBox="0 0 1920 1920"><defs><linearGradient id="a" x1="280" y1="640" x2="1200" y2="640" gradientUnits="userSpaceOnUse"><stop offset="0.27" stop-color="#ff824e"/><stop offset="0.74" stop-color="#ffa766"/></linearGradient><linearGradient id="b" x1="481.9" y1="607.34" x2="1438.1" y2="1312.66" gradientUnits="userSpaceOnUse"><stop offset="0.18" stop-color="#ff824e"/><stop offset="0.82" stop-color="#ff5c35"/></linearGradient></defs><rect width="1920" height="1920" fill="none"/><path d="M960,720A240,240,0,0,0,720,960v640a240,240,0,0,0,437.77,136l440-640a240,240,0,0,0-197-376Z" fill="#ff5c35"/><path d="M960,1200a240,240,0,0,0,240-240V320a240,240,0,0,0-437.77-136l-440,640A240,240,0,0,0,520,1200Z" fill="url(#a)"/><circle cx="960" cy="320" r="240" fill="#ff5c35"/><path d="M1400,1200H520a240,240,0,1,1,0-480h880a240,240,0,1,1,0,480Z" fill="url(#b)"/></svg>