<svg xmlns="http://www.w3.org/2000/svg" xmlns:xlink="http://www.w3.org/1999/xlink" width="1920" height="1920" viewBox="0 0 1920 1920"><defs><linearGradient id="a" x1="811.74" y1="137.44" x2="1704.76" y2="936.69" gradientUnits="userSpaceOnUse"><stop offset="0.19" stop-color="#ff5c35"/><stop offset="0.61" stop-color="#ffa766"/></linearGradient><linearGradient id="b" x1="1165.5" y1="1710.61" x2="258.72" y2="1097.05" gradientUnits="userSpaceOnUse"><stop offset="0.16" stop-color="#ff5c35"/><stop offset="0.95" stop-color="#ffa766"/></linearGradient><linearGradient id="c" x1="5451.57" y1="14216.84" x2="6344.59" y2="15016.1" gradientTransform="translate(6560 16000) rotate(180)" gradientUnits="userSpaceOnUse"><stop offset="0.11" stop-color="#ff5c35"/><stop offset="0.88" stop-color="#ffa766"/></linearGradient></defs><path d="M405.74,1520a240,240,0,0,1-189.45-387.33c42.45-54.59,64-112.68,64-172.67s-21.52-118.08-64-172.67A240,240,0,0,1,595.2,492.67C703.18,631.53,760.26,793.13,760.26,960s-57.08,328.47-165.06,467.33A240.08,240.08,0,0,1,405.74,1520Z" fill="#ff5c35"/><path d="M1514.26,1520a240.08,240.08,0,0,1-189.46-92.67c-108-138.86-165.06-300.46-165.06-467.33s57.08-328.47,165.06-467.33a240,240,0,1,1,378.91,294.66c-42.45,54.59-64,112.68-64,172.67s21.52,118.08,64,172.67A240,240,0,0,1,1514.26,1520Z" fill="#ff5c35"/><path d="M486.15,885.62a826.41,826.41,0,0,1-113.27-7.88,240,240,0,0,1,65.73-475.48c68.49,9.47,129.57-.94,181.52-30.93s91.5-77.69,117.55-141.74a240,240,0,0,1,444.64,180.82C1116.06,573.35,1004.64,703.58,860.13,787,747.21,852.21,619.65,885.62,486.15,885.62Z" fill="#ff5c35"/><path d="M960,1840a240,240,0,0,1-222.32-330.41c66.26-162.94,177.68-293.17,322.19-376.61s313-114.8,487.25-90.72a240,240,0,0,1-65.73,475.48c-68.49-9.47-129.57.94-181.52,30.93s-91.5,77.69-117.55,141.74A240,240,0,0,1,960,1840Z" fill="#ff5c35"/><path d="M1433.85,885.62c-133.51,0-261-33.4-374-98.6C915.36,703.58,803.94,573.35,737.68,410.41a240,240,0,0,1,444.64-180.82c26,64,65.6,111.74,117.55,141.74s113,40.4,181.52,30.93a240,240,0,0,1,65.73,475.48A827.89,827.89,0,0,1,1433.85,885.62Z" fill="url(#a)"/><path d="M960,1840a240,240,0,0,1-222.32-149.59c-26-64.05-65.6-111.74-117.55-141.74s-113-40.4-181.52-30.93a240,240,0,0,1-65.73-475.48c174.25-24.09,342.73,7.28,487.25,90.72s255.93,213.67,322.19,376.61A240,240,0,0,1,960,1840Z" fill="url(#b)"/><circle cx="1514.26" cy="640" r="240" fill="#ff5c35"/><path d="M487.15,1035.09c133.61,0,260.92,33.23,373.3,98.12,144,83.16,255.35,213.58,321.87,377.16a240,240,0,1,1-444.64,180.82c-26.31-64.7-65.75-112.57-117.23-142.29-39-22.52-83.6-33.85-133-33.85a357.4,357.4,0,0,0-48.82,3.47A240,240,0,0,1,372.88,1043,835.44,835.44,0,0,1,487.15,1035.09Z" fill="url(#c)"/><rect width="1920" height="1920" fill="none"/></svg>