<svg xmlns="http://www.w3.org/2000/svg" xmlns:xlink="http://www.w3.org/1999/xlink" width="1920" height="1920" viewBox="0 0 1920 1920"><defs><linearGradient id="a" x1="344.47" y1="825.51" x2="1334.74" y2="1555.96" gradientUnits="userSpaceOnUse"><stop offset="0.18" stop-color="#ff824e"/><stop offset="0.82" stop-color="#ff5c35"/></linearGradient><linearGradient id="b" x1="104.27" y1="817.7" x2="1860.91" y2="817.7" gradientUnits="userSpaceOnUse"><stop offset="0.27" stop-color="#ff824e"/><stop offset="0.74" stop-color="#ffa766"/></linearGradient></defs><path d="M1580,1488.63l-390.25-1201C1159.89,189,1068.34,117.2,960,117.2S760.11,189,730.27,287.59L340,1488.63A240,240,0,0,0,709.34,1757h0L960,1574.85,1210.65,1757l.18.11A240,240,0,0,0,1580,1488.63Z" fill="#ff5c35"/><path d="M1351.72,1802.8A240,240,0,0,1,1210.65,1757L185.11,1011.86A240,240,0,0,1,467.25,623.53l1025.54,745.1a240,240,0,0,1-141.07,434.17Z" fill="url(#a)"/><path d="M1639.94,1057.7H326.18a240,240,0,1,1,0-480H1639.94a240,240,0,0,1,0,480Z" fill="url(#b)"/><circle cx="1639.94" cy="817.7" r="240" fill="#ff5c35"/><rect width="1920" height="1920" fill="none"/></svg>